<svg width="14" height="18" viewBox="0 0 14 18" fill="none" xmlns="http://www.w3.org/2000/svg">
<path d="M4.27846 9.4126V5.13415L6.84553 3.42276L9.4126 5.13415V9.4126H7.70122V6.84553H5.98984V9.4126H4.27846ZM6.84553 14.8462C8.58543 13.249 9.8761 11.7977 10.7175 10.4925C11.559 9.18784 11.9797 8.02923 11.9797 7.01667C11.9797 5.46216 11.4839 4.18918 10.4925 3.19772C9.50159 2.20683 8.28594 1.71138 6.84553 1.71138C5.40512 1.71138 4.18918 2.20683 3.19772 3.19772C2.20683 4.18918 1.71138 5.46216 1.71138 7.01667C1.71138 8.02923 2.1321 9.18784 2.97353 10.4925C3.81496 11.7977 5.10562 13.249 6.84553 14.8462ZM6.84553 17.1138C4.54942 15.16 2.83462 13.3451 1.70111 11.6691C0.567038 9.99362 0 8.44282 0 7.01667C0 4.87744 0.688261 3.17319 2.06478 1.90391C3.44073 0.634637 5.03432 0 6.84553 0C8.65674 0 10.2503 0.634637 11.6263 1.90391C13.0028 3.17319 13.6911 4.87744 13.6911 7.01667C13.6911 8.44282 13.1243 9.99362 11.9908 11.6691C10.8567 13.3451 9.14163 15.16 6.84553 17.1138Z" fill="#31507F"/>
</svg>
