<svg width="22" height="22" viewBox="0 0 22 22" fill="none" xmlns="http://www.w3.org/2000/svg">
<mask id="mask0_161_4160" style="mask-type:alpha" maskUnits="userSpaceOnUse" x="0" y="0" width="22" height="22">
<rect width="21.3923" height="21.3923" fill="#D9D9D9"/>
</mask>
<g mask="url(#mask0_161_4160)">
<path d="M16.046 19.6096C15.3032 19.6096 14.6718 19.3496 14.1518 18.8297C13.6319 18.3097 13.3719 17.6784 13.3719 16.9356C13.3719 16.8316 13.3793 16.7237 13.3942 16.612C13.4091 16.5009 13.4313 16.4008 13.4611 16.3116L7.17707 12.6571C6.92452 12.88 6.64227 13.0544 6.33029 13.1803C6.01832 13.3069 5.6915 13.3702 5.34982 13.3702C4.60703 13.3702 3.97566 13.1102 3.45571 12.5903C2.93576 12.0703 2.67578 11.439 2.67578 10.6962C2.67578 9.95338 2.93576 9.32201 3.45571 8.80206C3.97566 8.2821 4.60703 8.02213 5.34982 8.02213C5.6915 8.02213 6.01832 8.08512 6.33029 8.21109C6.64227 8.33766 6.92452 8.51237 7.17707 8.7352L13.4611 5.08069C13.4313 4.99156 13.4091 4.89143 13.3942 4.78031C13.3793 4.66859 13.3719 4.56074 13.3719 4.45675C13.3719 3.71396 13.6319 3.08259 14.1518 2.56264C14.6718 2.04269 15.3032 1.78271 16.046 1.78271C16.7887 1.78271 17.4201 2.04269 17.9401 2.56264C18.46 3.08259 18.72 3.71396 18.72 4.45675C18.72 5.19954 18.46 5.83091 17.9401 6.35086C17.4201 6.87081 16.7887 7.13078 16.046 7.13078C15.7043 7.13078 15.3774 7.0675 15.0655 6.94093C14.7535 6.81495 14.4712 6.64054 14.2187 6.41771L7.93472 10.0722C7.96443 10.1614 7.98671 10.2615 8.00157 10.3726C8.01642 10.4843 8.02385 10.5922 8.02385 10.6962C8.02385 10.8002 8.01642 10.9077 8.00157 11.0188C7.98671 11.1305 7.96443 11.231 7.93472 11.3201L14.2187 14.9746C14.4712 14.7518 14.7535 14.5771 15.0655 14.4505C15.3774 14.3245 15.7043 14.2615 16.046 14.2615C16.7887 14.2615 17.4201 14.5215 17.9401 15.0415C18.46 15.5614 18.72 16.1928 18.72 16.9356C18.72 17.6784 18.46 18.3097 17.9401 18.8297C17.4201 19.3496 16.7887 19.6096 16.046 19.6096ZM16.046 5.34809C16.2985 5.34809 16.51 5.26282 16.6806 5.09228C16.8517 4.92114 16.9373 4.7093 16.9373 4.45675C16.9373 4.2042 16.8517 3.99236 16.6806 3.82122C16.51 3.65068 16.2985 3.5654 16.046 3.5654C15.7934 3.5654 15.5819 3.65068 15.4113 3.82122C15.2402 3.99236 15.1546 4.2042 15.1546 4.45675C15.1546 4.7093 15.2402 4.92114 15.4113 5.09228C15.5819 5.26282 15.7934 5.34809 16.046 5.34809ZM5.34982 11.5875C5.60236 11.5875 5.81421 11.5019 5.98534 11.3308C6.15589 11.1603 6.24116 10.9487 6.24116 10.6962C6.24116 10.4436 6.15589 10.2318 5.98534 10.0606C5.81421 9.89009 5.60236 9.80482 5.34982 9.80482C5.09727 9.80482 4.88543 9.89009 4.71429 10.0606C4.54374 10.2318 4.45847 10.4436 4.45847 10.6962C4.45847 10.9487 4.54374 11.1603 4.71429 11.3308C4.88543 11.5019 5.09727 11.5875 5.34982 11.5875ZM16.046 17.8269C16.2985 17.8269 16.51 17.7414 16.6806 17.5702C16.8517 17.3997 16.9373 17.1881 16.9373 16.9356C16.9373 16.683 16.8517 16.4715 16.6806 16.3009C16.51 16.1298 16.2985 16.0442 16.046 16.0442C15.7934 16.0442 15.5819 16.1298 15.4113 16.3009C15.2402 16.4715 15.1546 16.683 15.1546 16.9356C15.1546 17.1881 15.2402 17.3997 15.4113 17.5702C15.5819 17.7414 15.7934 17.8269 16.046 17.8269Z" fill="#31507F"/>
</g>
</svg>
